<svg xmlns="http://www.w3.org/2000/svg" id="b" viewBox="0 0 286.82 66.61"><defs><style>.d{fill-rule:evenodd}.d,.e{fill:#fff;stroke-width:0}</style></defs><g id="c"><path d="M206.07 49.06c0 1.49-1.19 2.69-2.66 2.69s-2.66-1.21-2.66-2.69 1.19-2.69 2.66-2.69 2.66 1.2 2.66 2.69Z" class="d"/><path d="M230.47 49.72h-18.6c-.36 0-.66-.3-.66-.66s.3-.66.66-.66h18.6c.36 0 .66.29.66.66s-.29.66-.66.66Z" class="e"/><path d="M79.26 49.06c0 1.49 1.19 2.69 2.66 2.69s2.66-1.21 2.66-2.69-1.19-2.69-2.66-2.69-2.66 1.2-2.66 2.69Z" class="d"/><path d="M73.46 49.72h-18.6c-.36 0-.66-.3-.66-.66s.3-.66.66-.66h18.6c.36 0 .66.3.66.66s-.3.66-.66.66Zm100.67 4.87c-.11-1.86 1.03-2.96 2.61-2.88 1.14.04 1.99 1.17 1.58 2.77-.48 1.79.92 2.74 2.54 2.74 1.77 0 3.09-.99 3.09-2.48 0-1.1-.52-2.01-2.8-3.4-2.94-1.83-4.49-3.69-4.49-5.8 0-3.91 3.64-5.37 6.55-5.37s5.81 1.39 5.81 4.31c-.04 1.82-1.07 2.99-2.57 2.92-1.18-.07-2.06-1.21-1.58-2.59.44-1.46.22-2.77-1.62-2.77-1.69 0-2.83 1.21-2.83 2.45 0 1.13.59 1.97 1.99 2.81 3.57 2.23 5.92 3.65 5.88 6.61-.04 2.7-2.61 5.33-7.32 5.33-4.05-.01-6.62-2.02-6.84-4.65Zm-1.14 2.56c-1.18 1.24-2.72 2.08-4.23 2.04-3.05-.04-3.86-2.74-2.83-7.16 1.29-5.4 2.83-8.73.22-8.73-1.18 0-3.35 1.46-4.89 5l-2.06 10.08c-.07.36-.37.58-.7.55-1.03-.11-1.95-.11-2.98 0-.4.04-.66-.37-.59-.73l2.24-11.21c.44-2.48.37-3.69-1.1-3.69-1.21 0-3.16 1.46-4.71 5.04l-2.13 10.04c-.07.36-.37.58-.7.55-1.07-.11-1.91-.11-2.98 0-.4.04-.66-.37-.59-.73l3.38-16.98c.07-.36.37-.58.7-.55 1.1.11 2.17.11 3.2 0 .4-.07.66.33.59.73l-.52 2.41c1.51-2.12 3.6-3.62 5.96-3.62 1.66 0 3.75.62 3.64 4.13 1.58-2.41 3.9-4.13 6.47-4.13 1.99 0 4.89.84 3.53 5.99-.63 2.45-1.32 4.93-1.95 7.41-.51 1.83-.18 2.78.7 2.78.44 0 .99-.29 1.58-.69.94-.58 1.45.74.75 1.47ZM145.63 43.5c0 1.97-1.14 3.54-2.72 3.54-1.44 0-1.95-1.28-1.66-2.48.18-.8.22-1.68-.85-1.68-1.32 0-3.46 2.3-4.6 6.64l-1.77 8.87c-.04.36-.33.58-.66.55-1.07-.15-1.99-.15-2.98 0-.4.04-.66-.37-.63-.73l3.38-16.98c.04-.36.37-.58.7-.55.99.11 1.91.11 2.94 0 .4-.04.7.33.59.73l-.52 2.52c1.29-2.15 3.09-3.72 5.48-3.72 1.31 0 3.3.73 3.3 3.29Zm-16.95 13.65c-1.18 1.24-2.72 2.08-4.27 2.04-1.69 0-2.98-.84-3.27-2.81-1.36 1.9-3.35 2.85-5.08 2.85-3.35-.04-4.93-2.3-4.93-4.53.04-4.16 3.64-5.55 6.88-6.43 2.65-.69 4.6-1.17 4.97-2.19l.22-1.02c.48-2.04-.66-2.99-1.88-2.99-1.69 0-2.28 1.31-2.65 2.48-.48 1.61-1.36 2.41-2.61 2.45-1.21.04-2.1-1.06-1.8-2.37.73-3.1 4.05-4.45 7.32-4.45 2.87 0 6.58 1.5 5.52 6.64l-1.47 6.79c-.4 1.86-.15 2.78.7 2.78.44 0 .99-.29 1.58-.69.91-.6 1.43.72.77 1.45Zm-7.32-4.02s.04-.07.04-.15c.37-1.53.7-2.96.99-4.31-.85.66-1.88 1.1-2.87 1.53-2.28 1.09-4.16 2.15-4.16 4.16 0 1.17.81 2.01 2.1 2.01 1.51.01 3.2-1.41 3.9-3.24Zm-5.81-16.86c-.04 1.24-.88 1.94-1.84 1.94s-1.55-.47-2.06-1.39c-.7-1.21-.85-1.97-1.69-1.97-1.8 0-2.5 3.18-2.87 5.29l-.55 3.07h4.89c.26 0 .48.18.4.47l-.26 1.32c-.04.26-.22.4-.48.4h-4.97l-1.43 8.07c-1.47 8.4-3.6 13.14-9.71 13.14-2.43 0-4.89-1.28-4.93-3.4 0-1.13.77-1.9 1.8-1.9.85 0 1.62.36 2.17 1.21.85 1.28.88 2.01 1.8 2.01 1.77 0 2.72-2.63 4.34-11.06.44-2.26.92-4.93 1.47-8.07H98.1c-.26 0-.51-.22-.44-.47l.26-1.31c.04-.29.26-.4.51-.4H102c.15-.8.29-1.64.48-2.52 1.14-6.53 5.11-7.85 8.09-7.85 2.48-.02 5.02 1.26 4.98 3.42Zm167.97 6.14c-1.52-.35-2.34-1.75-1.99-3.26.37-1.59 1.82-2.37 3.23-2.04 1.39.32 2.35 1.66 1.98 3.25-.38 1.6-1.83 2.38-3.22 2.05Zm1.13-4.84c-1.15-.27-2.25.43-2.55 1.71-.28 1.21.27 2.37 1.53 2.67 1.13.26 2.23-.42 2.54-1.72.29-1.28-.39-2.39-1.52-2.66Zm-1.39 3.59-.48-.11.68-2.93 1.11.26c.71.17 1.01.5.87 1.09-.12.53-.5.68-.95.62l.52 1.48-.55-.13-.47-1.43-.45-.11-.28 1.26Zm.92-1.54c.36.08.69.12.79-.3.08-.35-.26-.48-.55-.55l-.58-.13-.2.86.54.12ZM36.72 12.3c-.89 6.37-1.71 12.74-2.48 19.11-.05.46-.16 1.62-.08 2.05.08.44.34.84 1.01.72l.18.96c-3.18.59-6.35 1.21-9.52 1.86-.07-.32-.13-.64-.2-.96.62-.13.7-.64.61-1.08-.12-.61-.35-1.06-.65-1.6a632.81 632.81 0 0 0-3.42-5.53h-.05c-.36 2.11-.72 4.21-1.06 6.32-.08.7-.14 1.53-.06 1.92.09.44.32.84.98.7.07.32.13.64.2.96-3.12.66-6.24 1.34-9.36 2.05-.07-.32-.14-.64-.22-.96.57-.13.66-.56.54-1.08-.14-.61-1.01-2.19-1.32-2.76-3.02-5.12-6.08-10.22-9.19-15.29-.78-1.28-1.3-1.8-2.4-1.54-.08-.32-.15-.64-.23-.95 3.78-.91 7.56-1.78 11.35-2.61l.21.96c-1.19.26-1.52.75-1.4 1.27.07.3.31.94.46 1.22 1.86 3.89 3.7 7.79 5.52 11.7.03 0 .06 0 .09-.02.54-3.84 1.11-7.68 1.7-11.53 1.52-.32 3.05-.63 4.57-.94 2.03 3.35 4.03 6.7 6.01 10.07.03 0 .06 0 .09-.02.13-4.35.28-8.71.45-13.06.03-.37 0-1-.05-1.26-.1-.53-.51-.9-1.57-.7-.06-.32-.12-.64-.19-.96 3.6-.69 7.21-1.35 10.82-1.98.06.32.11.64.17.97-.93.16-1.34.55-1.51 1.98Zm22.65 18.89c-.05-.32-.09-.65-.14-.97 1.03-.15 1.42-.88 1.23-2.29-.33-2.31-.65-4.62-.98-6.93-2.81.4-5.62.81-8.43 1.25l1.08 6.91c.21 1.36.77 2 1.79 1.84l.15.97c-3.37.52-6.74 1.06-10.1 1.64-.06-.32-.11-.64-.17-.97 1.02-.17 1.36-.91 1.12-2.31-1.06-6.31-2.12-12.62-3.19-18.94-.16-.92-.87-1.52-1.8-1.37-.06-.32-.11-.64-.17-.97 3.51-.6 7.01-1.17 10.53-1.7l.15.97c-1.11.17-1.43.85-1.22 2.22.32 2.03.63 4.05.95 6.08 2.83-.44 5.67-.86 8.51-1.26-.3-2.15-.61-4.29-.91-6.44-.13-.93-.74-1.56-1.81-1.41-.05-.32-.09-.65-.14-.97 3.56-.51 7.13-.99 10.7-1.44l.12.97c-1.12.14-1.55.83-1.37 2.2l2.4 18.69c.18 1.37.71 2.02 1.83 1.88l.12.97c-3.41.42-6.83.89-10.25 1.38Zm25-2.29c-8.15.82-13.54-4.27-14.48-11.75-1.06-8.4 4.33-13.88 11.83-14.63 7.55-.76 13.91 3.55 14.54 11.99.58 7.61-3.69 13.58-11.89 14.39ZM82.29 8.11c-3.48.35-5.24 3.46-4.72 8.16.56 5.05 3 7.38 6.25 7.05 3.38-.34 5.22-3.14 4.77-8.11-.44-4.88-2.73-7.46-6.3-7.1Zm35.74 17.95c-.5-.16-1.63-.24-2.3-.21-5.57.26-11.13.59-16.69 1.01-.02-.33-.05-.65-.07-.98 1.03-.08 1.44-.69 1.34-2.02-.46-6.43-.93-12.86-1.39-19.29-.08-1.16-.68-1.65-1.66-1.58-.02-.33-.05-.65-.07-.98 3.54-.26 7.07-.5 10.61-.7l.06.98c-.98.06-1.5.71-1.43 2l.99 16.5c2.9-.17 5.8-.33 8.7-.46 1.22-.05 1.88-.53 2.29-1.66.35.1.71.21 1.06.31-.5 2.37-.97 4.73-1.44 7.08Zm22.58-.52c-.54-.18-1.62-.3-2.74-.3-5.45.05-10.9.17-16.35.36-.01-.33-.02-.65-.04-.98 1.08-.04 1.46-.76 1.42-1.88-.22-6.43-.43-12.85-.65-19.28-.03-.98-.67-1.81-1.6-1.77-.01-.33-.02-.65-.04-.98C126.4.5 132.19.37 137.98.33c.8 0 1.87-.19 2.39-.33.51 2.2 1.01 4.39 1.51 6.59-.34.13-.68.27-1.02.4-.61-1.07-1.26-1.33-2.51-1.32-2.85.02-5.69.06-8.54.12.03 1.28.05 2.55.08 3.83 2.55-.05 5.1-.09 7.66-.11.88 0 1.47-.32 1.47-1.08h1.02l.03 7.53h-1c0-.8-.69-1.02-1.47-1.01-2.53.02-5.06.06-7.59.11.03 1.59.07 3.18.1 4.77 2.81-.06 5.62-.1 8.43-.12 1.45 0 1.99-.19 2.63-1.48.35.1.7.21 1.05.31-.55 2.34-1.08 4.67-1.61 7Zm32.32.78c-.53-.21-1.6-.39-2.72-.45-5.45-.26-10.9-.43-16.35-.54 0-.33 0-.65.02-.98 1.08.02 1.5-.68 1.52-1.8.14-6.43.28-12.86.41-19.29.02-.98-.57-1.84-1.5-1.86 0-.33 0-.65.02-.98 5.79.11 11.58.3 17.37.58.8.04 1.88-.09 2.4-.19.39 2.22.77 4.44 1.14 6.66-.35.12-.69.23-1.04.35-.55-1.1-1.18-1.4-2.43-1.46-2.84-.14-5.69-.25-8.54-.35-.04 1.28-.09 2.55-.13 3.83 2.55.09 5.1.19 7.65.31.88.04 1.49-.24 1.53-1 .34.02.68.03 1.02.05-.13 2.51-.25 5.01-.38 7.52-.33-.02-.67-.03-1-.05.04-.8-.63-1.06-1.41-1.09-2.53-.12-5.06-.22-7.58-.3-.05 1.59-.11 3.18-.16 4.76 2.81.09 5.62.21 8.43.34 1.45.07 2-.08 2.7-1.34.34.12.69.24 1.03.37-.68 2.31-1.34 4.6-2 6.91Zm18.71.95c.03-.33.05-.65.08-.98 1.17.1 1.58-.45 1.62-.94.02-.27-.19-.96-.26-1.23-1.11.22-2.56.23-3.91.13-1.31-.1-2.74-.35-3.89-.74-.17.43-.43.95-.46 1.31-.04.53.2.95 1.19 1.02-.02.33-.05.65-.07.98-3.39-.25-6.79-.47-10.18-.66l.06-.98c1.03.06 1.32-.28 1.9-1.59a878.41 878.41 0 0 1 8.43-18.47c.16-.35.5-1.08.52-1.35.04-.53-.31-.92-.92-.96.02-.33.05-.65.07-.98 3.51.25 7.01.53 10.51.83l-.09.98c-.7-.06-.96.27-1.01.81-.03.31.03.76.28 1.63 1.84 6.41 3.61 12.82 5.31 19.24.36 1.38.59 1.85 1.57 1.95-.03.33-.07.65-.1.98-3.54-.36-7.09-.68-10.65-.98Zm-1.33-17.32h-.09c-1.04 2.82-2.07 5.65-3.09 8.48.76.28 1.84.5 2.61.56s1.69.05 2.34-.12c-.58-2.98-1.17-5.94-1.77-8.91Zm28.26 20.2c-.83-1.64-1.62-5.46-1.8-7.73-.77-.05-2.22-.23-3.26-.4-.18 1.47-.35 2.95-.53 4.42-.16 1.37.16 2.04 1.24 2.17l-.12.97c-3.4-.42-6.79-.8-10.19-1.16.03-.32.07-.65.1-.97.99.1 1.54-.46 1.69-1.84.68-6.36 1.37-12.73 2.05-19.09.11-.97-.37-1.79-1.35-1.89.03-.32.07-.65.1-.97 2.01.12 7.08.41 11.09.91 6.44.78 13.33 3.14 12.23 10.5-.53 3.61-3.38 5.63-5.97 6.4.22 2.14 1 5.44 2.11 7.58.31.68.6 1.21 1.76 1.38-.05.32-.09.65-.14.97-3-.45-6-.86-9.01-1.25Zm-1.79-20.12c-.42-.05-.79-.1-1.81-.13-.28 2.32-.56 4.63-.83 6.95.68.13 1.32.2 2 .29 3.97.49 5.81-.42 6.14-2.9.31-2.3-1.24-3.69-5.5-4.21Zm38.25 7.67c-.16-1.16-.45-1.63-1.41-1.81-1.97-.37-3.94-.72-5.92-1.07l-2.85 16.19c-.25 1.4.08 2.18 1.1 2.37-.06.32-.11.64-.17.96-3.37-.6-6.75-1.17-10.13-1.72.05-.32.1-.65.16-.97 1.02.16 1.58-.47 1.81-1.87l2.64-16.23c-1.96-.32-3.92-.63-5.89-.93-.92-.14-1.42.05-2.02 1.23-.38-.16-.77-.32-1.15-.49.84-2.2 1.69-4.4 2.54-6.6.39.24 1.34.56 2.18.69 6 .93 12 1.94 17.98 3.05.83.15 1.81.06 2.19.05.07 2.36.13 4.71.18 7.06l-1.24.09Zm14.52 21.39.21-.96c1.02.23 1.65-.32 1.96-1.71l1.53-6.83c-2.78-.62-5.57-1.23-8.35-1.81-.48 2.28-.95 4.56-1.43 6.85-.28 1.35.01 2.14 1.03 2.36-.07.32-.14.64-.2.96-3.34-.71-6.69-1.39-10.04-2.04.06-.32.12-.64.19-.96 1.02.2 1.59-.37 1.87-1.77 1.23-6.28 2.47-12.56 3.7-18.84.18-.92-.28-1.74-1.2-1.91.06-.32.12-.64.19-.96 3.49.68 6.99 1.38 10.47 2.12-.07.32-.14.64-.2.96-1.1-.23-1.65.29-1.93 1.64l-1.26 6.02c2.81.59 5.63 1.2 8.43 1.83.47-2.12.95-4.23 1.42-6.35.2-.91-.14-1.72-1.2-1.96l.21-.96c3.53.78 7.05 1.59 10.56 2.44-.08.32-.15.64-.23.95-1.1-.26-1.75.22-2.07 1.57-1.45 6.11-2.9 12.22-4.35 18.34-.32 1.34-.04 2.14 1.06 2.41-.08.32-.15.64-.23.95-3.38-.81-6.76-1.59-10.14-2.34Z" class="e"/></g></svg>